<svg fill="none" height="270" viewBox="0 0 832 270" width="832" xmlns="http://www.w3.org/2000/svg"><path d="m202.45 35h-5.2c-.171 0-.31.1388-.31.31v197.38c0 .171.139.31.31.31h5.2c.172 0 .31-.139.31-.31v-197.38c0-.1712-.138-.31-.31-.31z" fill="#fff"/><path d="m100.62 66.5199 57.17 33c.36.2067.54.5201.54.9401l.09 69.91c0 .387-.167.683-.5.89l-1.72 1.07-59.02 34.11c-.3.18-.6033.18-.91 0l-60.7-35.01c-.1615-.094-.2955-.229-.3885-.39-.093-.162-.1418-.345-.1415-.53l-.04-69.84c.0005-.222.0588-.441.1693-.634.1104-.1924.2692-.3532.4607-.4661l60.49-34.99c.2867-.1666.58-.17.88-.01zm-47.6 93.6601c.0009.181.0494.358.1407.515.0912.156.2221.285.3793.375l42.68 24.6c.1566.09.3342.138.515.138s.3584-.048.515-.138l42.67-24.68c.159-.09.29-.222.382-.38.091-.158.139-.337.138-.52l-.07-49.21c0-.18-.047-.357-.136-.513-.09-.156-.219-.286-.374-.377l-42.67-24.6401c-.1578-.0922-.3372-.1409-.52-.1409s-.3622.0487-.52.1409l-42.64 24.6701c-.1554.091-.2842.221-.3737.377s-.1365.333-.1363.513z" fill="#c62828"/><path d="m487.87 86.6c9.3-2.88 18.67 1.19 21.19 11.21 2.43 9.64 1.11 23.67-10.07 26.96-5.247 1.547-10.04 1.063-14.38-1.45-7.66-4.44-8.67-15.41-7.27-23.38 1.24-7.1 4.75-11.5467 10.53-13.34zm3.51 31.88c9.37 2 9.68-9.06 9.34-15.49-.28-5.28-1.8-11.1-8.45-10.26-3.71.46-5.31 4.15-5.74 7.44-.61 4.65-1.23 17.02 4.85 18.31z" fill="#fff"/><path d="m660.01 113.06c-2.03-9.52-.76-22.76 9.74-26.29 4.714-1.5866 9.25-1.3833 13.61.61 9.65 4.43 10.49 18.36 7.81 27.29-2.01 6.67-7.24 10.57-14.26 10.91-8.49.41-15.08-3.98-16.9-12.52zm22.44-14.39c-.72-4.08-3.64-6.61-7.98-5.91-7.34 1.18-6.24 14.72-5.3 19.6.967 5.027 3.76 7.077 8.38 6.15 6.82-1.36 5.83-14.64 4.9-19.84z" fill="#c62828"/><path d="m713.49 117.77c3.3-.11 6.13-1.49 8.81-3.35.593-.407 1.143-.357 1.65.15 1.266 1.273 2.246 2.683 2.94 4.23.26.573.146 1.057-.34 1.45-6.09 4.92-16.38 7.79-23.27 2.81-8.07-5.83-8.04-20.04-4.81-27.83 2.373-5.7267 6.55-8.8634 12.53-9.41 7.64-.7 16.23 3.13 16.14 11.88-.06 4.65-4.4 5.13-7.94 4.26-.347-.087-.52-.307-.52-.66-.02-3.23-.65-7.15-4.26-8.12-5.91-1.59-7.96 3.56-8.34 8.28-.43 5.14-.77 16.56 7.41 16.31z" fill="#c62828"/><g fill="#fff"><path d="m315.24 108.88c1.966 1.407 3.276 3.34 3.93 5.8.84 3.153 2.066 5.777 3.68 7.87.253.327.213.61-.12.85-3.28 2.3-8.32 3.27-10.12-1.41-.96-2.493-1.847-5.007-2.66-7.54-1.02-3.16-3.34-3.98-6.51-3.66-.407.04-.61.263-.61.67v12.89c0 .18-.072.353-.199.481-.128.127-.301.199-.481.199l-7.39.03c-.527 0-.79-.267-.79-.8l.01-37.21c0-.3534.176-.5334.53-.54 4.133-.1134 8.293-.2 12.48-.26 6.59-.1 12.85 2.17 14.09 9.38.993 5.747-.94 9.95-5.8 12.61-.354.193-.367.407-.04.64zm-12.46-15.43.08 10.1c0 .053.01.106.031.155.021.05.051.094.089.131.039.038.084.067.134.086.049.02.102.029.156.028l4.04-.04c1.315-.011 2.572-.515 3.494-1.4.923-.885 1.436-2.079 1.426-3.32l-.02-1.54c-.005-.6148-.138-1.2226-.392-1.7886-.254-.5659-.624-1.079-1.088-1.5099-.465-.4309-1.015-.7712-1.618-1.0014-.604-.2301-1.251-.3457-1.902-.3401l-4.04.04c-.105.0026-.204.0459-.277.1206s-.113.175-.113.2794z"/><path d="m358.77 124.7-10.11.15c-.148.002-.294-.039-.418-.119-.125-.08-.223-.195-.282-.331-3.66-8.247-7.28-16.503-10.86-24.77-.107-.2534-.14-.5134-.1-.78.026-.2067-.007-.4-.1-.58-.554-1.08-.797-1.0134-.73.2.493 9.14.65 17.703.47 25.69-.014.6-.32.897-.92.89l-6.62-.03c-.534 0-.797-.263-.79-.79l.2-37.52c3.253-.58 6.51-.6067 9.77-.08.38.06.643.2666.79.62l11.47 26.58c.366.847.516.81.45-.11-.52-7.527-.654-15.4767-.4-23.85.023-.765.305-1.4995.798-2.0842.494-.5846 1.171-.9849 1.922-1.1358.973-.2 1.946-.3967 2.92-.59 1.72-.3467 2.58.3566 2.58 2.11z"/><path d="m374.11 117.18-1.99 6.85c-.187.64-.613.99-1.28 1.05-2.247.193-4.37.107-6.37-.26-.76-.14-1.02-.577-.78-1.31l11.92-36.3999c.113-.36.357-.56.73-.6 3.133-.34 6.19-.3234 9.17.0499.182.0238.353.0986.493.2155.14.117.243.2712.297.4446l11.26 35.0399c.647 2.027-.09 3.013-2.21 2.96-.953-.027-1.907-.05-2.86-.07-2.273-.06-3.733-1.18-4.38-3.36l-1.29-4.36c-.133-.44-.43-.66-.89-.66l-11.27-.01c-.124 0-.245.041-.344.117s-.171.182-.206.303zm2.47-7.94c-.087.333.043.497.39.49l6.98-.01c.453 0 .62-.22.5-.66l-3.58-13.2799c-.233-.8867-.47-.8867-.71 0z"/><path d="m410.61 98.08c.6 8.807.793 17.493.58 26.06-.013.587-.317.88-.91.88l-6.56.01c-.215 0-.421-.085-.573-.237s-.237-.358-.237-.573v-37c0-.3533.173-.5533.52-.6 3.033-.4333 6.18-.46 9.44-.08.327.04.553.21.68.51l11.6 26.91c.42.973.587.93.5-.13-.653-7.547-.823-15.53-.51-23.95.029-.7595.31-1.4874.8-2.0674.489-.58 1.158-.9788 1.9-1.1326.067-.0133 1.093-.2267 3.08-.64 1.613-.34 2.42.3167 2.42 1.97l.01 36.05c0 .46-.23.717-.69.77-3.12.353-6.267.367-9.44.04-.176-.018-.343-.082-.484-.184-.14-.102-.25-.239-.316-.396l-11.44-26.3c-.3-.6933-.423-.6633-.37.09z"/><path d="m441.79 87.4c.003-.3006.124-.588.338-.7996.213-.2117.502-.3304.802-.3304l14.67.02c1.986.0025 3.951.4116 5.784 1.2041s3.497 1.9527 4.899 3.4145c1.401 1.4617 2.512 3.1963 3.268 5.1046.756 1.9082 1.144 3.9528 1.139 6.0168l-.02 7.38c-.008 4.165-1.606 8.156-4.443 11.096s-6.681 4.589-10.687 4.584l-14.67-.03c-.302 0-.592-.12-.806-.334-.213-.214-.334-.504-.334-.806zm8.96 6.24-.08 24.12c0 .125.05.244.138.332.088.089.208.138.332.138l4.71.02c.996.003 1.983-.233 2.904-.694.922-.461 1.76-1.139 2.466-1.994.707-.855 1.268-1.871 1.653-2.99.384-1.12.584-2.32.587-3.532l.02-6.6c.008-2.4473-.784-4.7965-2.2-6.5311-1.415-1.7346-3.34-2.7126-5.35-2.7189l-4.71-.02c-.061 0-.122.0122-.179.0358s-.109.0582-.153.1019c-.044.0436-.078.0954-.102.1525-.023.057-.036.1181-.036.1798z"/></g><path d="m549.93 108.99c4.71 2.71 3.85 9.46 7.52 13.25.347.36.33.703-.05 1.03-.98.833-2.14 1.427-3.48 1.78-3.493.907-5.83-.413-7.01-3.96-.833-2.513-1.64-4.817-2.42-6.91-1.08-2.907-3.256-3.997-6.53-3.27-.3.067-.45.253-.45.56v12.79c0 .513-.256.77-.77.77h-7.27c-.54 0-.81-.27-.81-.81v-37.17c0-.1362.054-.267.149-.3642.095-.0973.225-.1532.361-.1558 3.82-.1067 7.8-.2034 11.94-.29 7.21-.15 13.73 2.14 14.75 10.03.7 5.427-1.276 9.457-5.93 12.09-.366.207-.366.417 0 .63zm-12.41-15.66-.02 10.26c0 .09.036.177.1.24.064.064.15.1.24.1l4.02.01c.665.001 1.323-.12 1.937-.356.615-.237 1.173-.584 1.644-1.022s.845-.959 1.1-1.533c.256-.573.388-1.1878.389-1.809v-1.48c.003-1.2544-.528-2.4585-1.475-3.3474s-2.233-1.3898-3.575-1.3926l-4.02-.01c-.09 0-.176.0358-.24.0996-.064.0637-.1.1502-.1.2404z" fill="#c62828"/><path d="m581.7 116.77-11.16-.01c-.34 0-.557.163-.65.49l-1.96 6.72c-.2.673-.653 1.04-1.36 1.1-2.22.193-4.257.127-6.11-.2-.907-.16-1.217-.677-.93-1.55l11.83-36.0999c.14-.4334.44-.6767.9-.73 2.993-.3134 6.01-.3 9.05.04.38.0466.63.2533.75.62 3.94 12.3 7.727 24.0329 11.36 35.1999.653 2-.143 2.963-2.39 2.89-.153-.007-1.08-.037-2.78-.09-2.28-.073-3.74-1.207-4.38-3.4l-1.24-4.28c-.133-.467-.443-.7-.93-.7zm-1.76-7.04c.05 0 .1-.011.145-.033s.084-.054.115-.094c.031-.039.052-.085.063-.134.01-.05.009-.1-.003-.149l-3.61-13.8699c-.018-.0713-.059-.1345-.117-.1797s-.129-.0697-.203-.0697c-.073 0-.145.0245-.203.0697s-.099.1084-.117.1797l-3.66 13.8799c-.012.049-.013.099-.003.149.011.049.032.095.063.134.031.04.07.072.115.094s.095.033.145.033z" fill="#c62828"/><path d="m646.69 104.31c2.34.727 3.934 2.267 4.78 4.62 1.114 3.08 2.204 6.25 3.27 9.51.454 1.387 1.174 2.687 2.16 3.9.101.125.151.283.14.444s-.082.313-.2.426c-3.09 2.92-8.74 3.23-10.39-1.47-.98-2.793-1.946-5.723-2.9-8.79-1.033-3.313-3.313-4.697-6.84-4.15-.162.026-.31.107-.418.23-.108.122-.169.278-.172.44l-.03 14.75c0 .547-.273.82-.82.82h-7.28c-.533 0-.8-.267-.8-.8v-37.02c0-.4667.234-.7233.7-.77 2.607-.2667 5.13-.2533 7.57.04.427.0467.64.29.64.73l.01 13.48c0 .447.224.67.67.67 1.25 0 2.37-.18 3-1.39 2.06-3.92 4.124-7.8067 6.19-11.66.647-1.2133 1.66-1.8633 3.04-1.95 1.967-.1133 3.884-.07 5.75.13.9.0933 1.14.54.72 1.34-2.3 4.4133-4.72 8.9467-7.26 13.6-.43.81-1.07 1.45-1.72 2.08-.38.367-.316.63.19.79z" fill="#c62828"/><path d="m776.87 103.22c1.62-5.4133 3.546-10.62 5.78-15.62.453-1.0133 1.236-1.4833 2.35-1.41l4.99.35c1.14.08 1.486.6467 1.04 1.7l-9.96 23.54c-.37.865-.56 1.797-.56 2.74l.02 9.86c0 .44-.22.66-.66.66l-7.54.01c-.206 0-.402-.081-.548-.225s-.23-.34-.232-.545c-.007-2.987.016-5.997.07-9.03.02-1.56-.394-3.33-1.24-5.31-2.98-6.94-5.934-13.76-8.86-20.46-.8-1.8333-.2-2.8266 1.8-2.98.933-.0666 1.863-.1366 2.79-.21 2.153-.16 3.656.75 4.51 2.73 2.293 5.3467 4.056 10.08 5.29 14.2.32 1.08.64 1.08.96 0z" fill="#c62828"/><path d="m241.23 94.24c-.18 0-.27.0933-.27.28l.04 7.23c.006.24.13.36.37.36l10.44-.05c1.006-.007 1.51.493 1.51 1.5v4.38c0 1-.5 1.5-1.5 1.5l-10.29-.01c-.36 0-.54.18-.54.54v14.05c0 .68-.34 1.02-1.02 1.02h-6.95c-.674-.007-1.01-.347-1.01-1.02v-36.97c0-.1194.047-.2338.132-.3182.084-.0844.198-.1318.318-.1318l22.29-.01c1.62 0 2.296.8 2.03 2.4-.167.9733-.304 1.77-.41 2.39-.32 1.8933-1.44 2.84-3.36 2.84z" fill="#fff"/><path d="m271 109.25c-.069 0-.135.026-.184.073-.048.047-.076.111-.076.177l-.05 7.73c0 .037.008.073.022.107.015.034.036.065.063.091s.059.047.094.061.073.021.111.021l14.61-.03c2.187-.007 2.877 1.007 2.07 3.04-.167.427-.31.793-.43 1.1-.907 2.28-2.587 3.41-5.04 3.39-5.433-.053-10.327-.057-14.68-.01-3.753.033-5.63-1.857-5.63-5.67-.013-10.7-.013-21.4467 0-32.24 0-.1326.053-.2598.147-.3536.093-.0937.221-.1464.353-.1464h23.06c.9 0 1.327.45 1.28 1.35l-.24 4.79c-.047.92-.53 1.38-1.45 1.38l-13.99-.03c-.095 0-.187.0379-.254.1054-.068.0675-.106.1591-.106.2546l.07 7.31c0 .16.083.24.25.24h11.53c.453 0 .717.227.79.68.28 1.893.277 3.84-.01 5.84-.073.493-.36.74-.86.74z" fill="#fff"/><path d="m603.62 94-8.16.04c-.38 0-.6-.19-.66-.57-.274-1.7267-.284-3.7967-.03-6.21.046-.44.293-.66.74-.66h25.68c1.46 0 2.1.72 1.92 2.16-.08.6533-.19 1.53-.33 2.63-.214 1.7333-1.19 2.6033-2.93 2.61l-6.09.02c-.36 0-.54.18-.54.54l.02 29.58c0 .587-.294.88-.88.88l-7.34.01c-.514 0-.77-.253-.77-.76v-29.65c0-.42-.21-.6267-.63-.62z" fill="#c62828"/><path d="m747.84 93.49c-4.98.4133-10.107.5333-15.38.36-.52-.02-.807-.2867-.86-.8-.213-1.88-.133-3.7734.24-5.68.1-.5134.413-.77.94-.77l23.52.03c.353 0 .583.1666.69.5.7 2.3 1.74 5.64.24 7.77-5.367 7.64-10.923 15.18-16.67 22.62-.013.018-.021.039-.022.062-.002.022.003.044.013.064.011.02.026.036.046.047.019.012.041.017.063.017 4.193-.233 8.463-.393 12.81-.48 1.42-.03 2.95-.46 4.28-.98.467-.187.7-.027.7.48 0 .4.047.807.14 1.22 1.05 4.94-1.72 6.89-6.09 6.85-6.92-.073-13.66-.077-20.22-.01-.447 0-.727-.213-.84-.64-.36-1.433-.64-2.9-.84-4.4-.153-1.173.35-2.58 1.51-4.22 5.327-7.513 10.657-14.703 15.99-21.57.273-.3534.187-.51-.26-.47z" fill="#c62828"/><path d="m129 117.25.01 36.52c.001.116-.03.23-.088.33s-.141.183-.242.24l-31.6602 18.28c-.1.059-.214.09-.33.09-.1161 0-.23-.031-.33-.09l-31.57-18.24c-.0975-.057-.1783-.139-.2344-.238-.0561-.098-.0856-.209-.0856-.322l-.04-36.56c-.0018-.115.0269-.228.0831-.328s.1379-.184.2369-.242l31.59-18.26c.0988-.0571.2109-.0871.325-.0871s.2261.03.325.0871l31.6802 18.25c.101.057.184.14.242.24s.089.214.088.33zm-46.5402 26.01c.0009.167.0458.33.1301.474.0842.144.2049.263.3499.346l13.28 7.67c.1465.084.3126.127.4813.125s.334-.048.4787-.135l13.3402-7.73c.143-.084.262-.204.344-.347.082-.144.126-.307.126-.473v-15.35c0-.166-.044-.329-.126-.473-.082-.143-.201-.263-.344-.347l-13.3502-7.72c-.1456-.085-.3113-.13-.48-.13-.1688 0-.3344.045-.48.13l-13.28 7.69c-.1431.084-.2618.204-.3443.347-.0824.144-.1258.307-.1257.473z" fill="#fff"/><path d="m243.05 166.37c-6.62-1.09-8.79 4.63-8.02 10.16 1.03 7.45 10.03 8.72 12.22 1.19.1-.353.333-.563.7-.63.533-.087 1.06-.073 1.58.04.142.036.265.126.342.251s.101.276.068.419c-1.14 4.68-3.93 7.103-8.37 7.27-13.55.49-12.63-23.82 1.98-21.11 3.3.613 5.353 2.523 6.16 5.73.024.094.027.192.007.287-.019.095-.059.184-.118.261s-.134.14-.221.184c-.086.043-.181.067-.278.068h-1.1c-.427 0-.717-.2-.87-.6-.747-2.02-2.107-3.193-4.08-3.52z" fill="#c62828"/><path d="m393.66 182.76c-3.174-4.04-3.747-8.73-1.72-14.07 2.66-4.453 6.516-5.937 11.57-4.45 2.613.773 4.29 2.687 5.03 5.74.06.24-.03.38-.27.42-.527.1-1.054.113-1.58.04-.474-.073-.794-.333-.96-.78-.727-1.92-2.047-3.023-3.96-3.31-6.6-.99-8.7 4.59-8 10.05.97 7.5 9.89 8.94 12.27 1.34.051-.162.146-.305.275-.415.13-.11.287-.181.455-.205.526-.08 1.05-.063 1.57.05.32.073.44.267.36.58-1.274 5.387-4.754 7.807-10.44 7.26-1.434-.14-2.967-.89-4.6-2.25z" fill="#fff"/><path d="m425.652 185.24c-2.649-.009-5.186-1.157-7.052-3.191-1.867-2.034-2.91-4.787-2.9-7.654s1.072-5.613 2.953-7.633c1.88-2.021 4.425-3.151 7.075-3.142 2.649.009 5.186 1.157 7.053 3.191 1.866 2.034 2.909 4.787 2.899 7.654s-1.072 5.613-2.953 7.633c-1.88 2.021-4.425 3.151-7.075 3.142zm.024-2.45c.939.002 1.869-.213 2.737-.631s1.657-1.032 2.323-1.806c.665-.774 1.193-1.694 1.554-2.706.361-1.013.548-2.098.55-3.195.002-1.096-.181-2.182-.539-3.196-.357-1.014-.882-1.935-1.545-2.712-.662-.776-1.449-1.393-2.316-1.814s-1.796-.638-2.735-.64-1.869.213-2.738.631c-.868.418-1.657 1.032-2.322 1.806-.666.774-1.194 1.694-1.555 2.706s-.548 2.098-.55 3.194c-.002 1.097.181 2.183.539 3.197.357 1.014.882 1.935 1.545 2.711.663.777 1.45 1.393 2.317 1.815.866.421 1.796.638 2.735.64z" fill="#fff"/><path d="m472.07 181.66c3.7 2.38 8.17.68 9.31-3.7.067-.258.215-.489.422-.657.206-.169.461-.268.728-.283.473-.027.92.04 1.34.2.233.093.323.267.27.52-.827 3.86-2.947 6.217-6.36 7.07-15.33 3.82-15.69-24.81.73-20.65 2.88.733 4.697 2.607 5.45 5.62.12.473-.063.703-.55.69l-1.33-.04c-.191-.005-.375-.07-.527-.185-.152-.114-.265-.273-.323-.455-.747-2.213-2.343-3.4-4.79-3.56-6.13-.39-7.87 5.11-7.22 10.26.307 2.427 1.257 4.15 2.85 5.17z" fill="#fff"/><path d="m269.03 178.7h-7.4c-.111 0-.221.034-.312.099-.091.064-.16.156-.198.261l-1.82 5.14c-.034.099-.097.186-.181.25-.083.064-.184.102-.289.11l-1.73.13c-.09.006-.18-.011-.262-.049s-.153-.096-.207-.169c-.053-.072-.088-.157-.101-.247-.012-.089-.002-.18.03-.265l7.3-19.37c.039-.104.109-.193.2-.255.091-.063.2-.096.31-.095l2.32.04c.11.002.217.037.307.102.089.064.157.154.193.258l6.99 19.25c.029.082.038.17.026.257-.013.086-.046.168-.097.239s-.119.128-.197.167-.164.059-.252.057l-1.85-.04c-.108-.004-.213-.04-.3-.104-.088-.065-.154-.154-.19-.256l-1.78-5.15c-.037-.105-.106-.197-.197-.261-.092-.065-.201-.099-.313-.099zm-6.77-2.91c-.017.048-.023.1-.016.151.006.051.025.1.054.142.03.042.069.077.115.101.045.023.096.036.147.036l5.47.05c.051-.001.1-.013.145-.036.044-.024.083-.057.112-.098s.048-.088.056-.138c.007-.049.003-.1-.013-.148l-2.66-7.74c-.02-.065-.061-.121-.116-.161-.055-.041-.121-.062-.189-.062s-.134.021-.189.062c-.054.04-.095.096-.116.161z" fill="#c62828"/><path d="m295.92 174.9c1.193.74 1.767 1.887 1.72 3.44-.06 2.18.243 4.29.91 6.33.027.093-.007.133-.1.12l-2.89-.34c-.167-.02-.257-.113-.27-.28l-.4-5.89c-.04-.628-.317-1.218-.775-1.652s-1.063-.679-1.695-.688l-7.1-.07c-.38 0-.57.187-.57.56v7.53c0 .467-.237.707-.71.72l-1.05.03c-.66.02-.99-.303-.99-.97v-18.94c0-.36.18-.54.54-.54 3.313-.027 6.56-.007 9.74.06 5.84.14 7.86 6.42 3.59 9.91-.293.247-.277.47.05.67zm-11.18-7.95.02 6.24c0 .085.034.166.094.226s.141.094.226.094l6.96-.01c.418-.001.831-.085 1.216-.245.385-.161.735-.395 1.03-.691.294-.295.527-.645.686-1.03.158-.385.239-.798.238-1.214v-.54c-.001-.416-.085-.828-.246-1.212s-.396-.733-.692-1.027c-.297-.293-.648-.525-1.034-.684-.387-.158-.8-.238-1.218-.237l-6.96.01c-.085 0-.166.034-.226.094s-.094.141-.094.226z" fill="#c62828"/><path d="m310.32 172.96h10.14c.073 0 .145.015.211.043.067.028.128.07.178.122.051.052.09.114.116.182s.038.14.035.213l-.04 1.32c-.005.14-.064.272-.165.369s-.235.151-.375.151l-10.06.01c-.143 0-.281.057-.382.158s-.158.239-.158.382l-.03 5.74c0 .143.057.281.158.382s.239.158.382.158l11.2-.01c.14 0 .274.054.375.151s.16.229.165.369l.05 1.28c.003.073-.009.145-.035.213s-.065.13-.116.182c-.05.052-.111.094-.178.122-.066.028-.138.043-.211.043l-13.98.05c-.143 0-.281-.057-.382-.158s-.158-.239-.158-.382l-.02-19.26c0-.143.057-.281.158-.382s.239-.158.382-.158l13.84.02c.072 0 .143.014.209.042s.126.068.176.12c.051.051.09.112.117.178.026.067.039.138.038.21l-.04 1.39c-.003.141-.061.276-.162.375-.101.1-.236.155-.378.155l-11.02-.01c-.143 0-.281.057-.382.158s-.158.239-.158.382l-.04 5.15c0 .071.014.141.041.207.027.065.067.125.117.175s.11.09.175.117c.066.027.136.041.207.041z" fill="#c62828"/><path d="m333.91 172.96h10.13c.126 0 .246.049.336.137s.141.207.144.333l.02 1.45c.001.064-.01.127-.034.187-.023.059-.058.113-.103.159s-.098.082-.157.107c-.059.024-.122.037-.186.037l-10.12.01c-.063 0-.126.012-.184.037-.058.024-.111.059-.156.104-.044.044-.079.097-.104.155-.024.059-.036.121-.036.184l-.03 5.85c0 .127.05.249.14.339.091.09.213.141.34.141l11.31.01c.125 0 .246.049.336.137s.141.207.144.333l.02 1.37c.001.064-.01.127-.034.187-.023.059-.058.113-.103.159s-.098.082-.157.107c-.059.024-.122.037-.186.037l-14.09.05c-.063 0-.126-.012-.184-.037-.058-.024-.111-.059-.156-.104-.044-.044-.079-.097-.104-.155-.024-.059-.036-.121-.036-.184l.03-19.37c0-.127.05-.249.14-.339.091-.09.213-.141.34-.141l13.83.02c.127 0 .249.051.339.141s.141.212.141.339l-.01 1.51c0 .127-.051.249-.141.339s-.212.141-.339.141l-11.07-.01c-.063 0-.126.012-.184.037-.058.024-.111.059-.156.104-.044.044-.079.097-.104.155-.024.059-.036.121-.036.184l-.02 5.27c0 .063.012.125.036.184.025.058.06.111.104.155.045.045.098.08.156.104.058.025.121.037.184.037z" fill="#c62828"/><path d="m357.04 176.54-.01 7.44c0 .507-.253.753-.76.74l-1.05-.04c-.626-.02-.94-.34-.94-.96l.03-18.9c0-.353.177-.533.53-.54 3.24-.067 6.614-.033 10.12.1 5.62.22 7.25 6.46 3.28 9.82-.273.233-.263.457.03.67 1.154.833 1.714 1.923 1.68 3.27-.053 2.367.224 4.443.83 6.23.094.28-.006.407-.3.38l-2.22-.17c-.152-.011-.295-.075-.405-.181s-.179-.247-.195-.399c-.2-1.653-.33-3.313-.39-4.98-.073-1.96-1.07-2.98-2.99-3.06-2.2-.1-4.393-.127-6.58-.08-.44.007-.66.227-.66.66zm-.03-9.58.02 6.24c0 .085.034.166.094.226s.141.094.226.094l6.99-.01c.846-.003 1.657-.328 2.253-.903.596-.576.93-1.355.927-2.167v-.76c-.001-.402-.085-.799-.246-1.17-.162-.371-.398-.708-.695-.991s-.65-.507-1.037-.66c-.388-.152-.803-.23-1.222-.229l-6.99.01c-.085 0-.166.034-.226.094s-.094.141-.094.226z" fill="#c62828"/><path d="m454.51 178.68-7.39.03c-.112 0-.221.034-.312.099-.092.064-.161.156-.198.261l-1.85 5.15c-.036.101-.1.189-.186.253-.085.064-.188.101-.294.107l-1.7.09c-.09.006-.181-.011-.262-.049-.082-.038-.154-.096-.207-.169-.054-.072-.089-.157-.101-.247-.012-.089-.002-.181.03-.265l7.3-19.36c.042-.105.115-.194.21-.255s.207-.091.32-.085l2.36.09c.105.005.207.041.292.103.086.062.151.148.188.247l6.99 19.35c.031.086.039.178.025.268-.014.089-.051.174-.107.246s-.129.128-.213.164c-.083.036-.175.051-.265.042l-1.87-.18c-.103-.01-.201-.049-.283-.112-.082-.064-.143-.15-.177-.248l-1.78-5.16c-.036-.109-.106-.204-.2-.27-.093-.067-.205-.102-.32-.1zm-6.75-2.86c-.016.045-.021.093-.015.14.007.048.025.093.052.132s.064.071.106.093c.042.023.089.035.137.035l5.45.07c.048.001.097-.01.14-.031.044-.022.081-.053.11-.093.028-.039.047-.085.054-.133s.002-.097-.014-.143l-2.63-7.83c-.019-.06-.056-.113-.107-.151-.05-.038-.111-.059-.175-.06-.063-.002-.125.017-.176.053-.052.037-.091.088-.112.148z" fill="#fff"/><path d="m505.03 175.05-9.42.08c-.152.003-.297.065-.404.173-.106.109-.166.255-.166.407v8.33c0 .15-.058.295-.163.403-.104.108-.247.172-.397.177l-1.57.07c-.078.003-.155-.01-.228-.038s-.139-.071-.195-.125-.101-.119-.131-.19c-.03-.072-.046-.149-.046-.227l-.02-19.28c0-.152.06-.298.166-.407.107-.108.252-.17.404-.173l1.61-.01c.077-.001.154.013.225.041.072.029.137.071.192.125s.098.119.128.19.045.147.045.224l-.07 7.32c-.001.078.013.155.042.227.029.073.073.138.128.193s.12.099.193.128c.072.029.149.043.227.042l9.55-.01c.154 0 .301-.061.41-.17s.17-.256.17-.41l.04-7.34c0-.078.016-.155.046-.227.03-.071.075-.136.131-.19.056-.055.122-.097.195-.125s.15-.041.228-.038l1.51.05c.15.005.293.069.397.177.105.108.163.253.163.403l-.03 19.25c0 .152-.06.298-.166.407-.107.108-.252.17-.404.173l-1.44.03c-.076.001-.152-.012-.223-.04s-.135-.07-.19-.123-.099-.116-.129-.186-.047-.145-.048-.221l-.18-8.53c-.005-.15-.069-.293-.177-.397-.108-.105-.253-.163-.403-.163z" fill="#fff"/></svg>