<svg width="832" height="270" viewBox="0 0 832 270" fill="none" xmlns="http://www.w3.org/2000/svg">
<path d="M202.45 35H197.25C197.079 35 196.94 35.1388 196.94 35.31V232.69C196.94 232.861 197.079 233 197.25 233H202.45C202.622 233 202.76 232.861 202.76 232.69V35.31C202.76 35.1388 202.622 35 202.45 35Z" fill="white"/>
<path d="M100.62 66.5199L157.79 99.5199C158.15 99.7266 158.33 100.04 158.33 100.46L158.42 170.37C158.42 170.757 158.253 171.053 157.92 171.26L156.2 172.33L97.18 206.44C96.88 206.62 96.5767 206.62 96.27 206.44L35.57 171.43C35.4085 171.336 35.2745 171.201 35.1815 171.04C35.0885 170.878 35.0397 170.695 35.04 170.51L35 100.67C35.0005 100.448 35.0588 100.229 35.1693 100.036C35.2797 99.8436 35.4385 99.6828 35.63 99.5699L96.12 64.5799C96.4067 64.4133 96.7 64.4099 97 64.5699L100.62 66.5199ZM53.02 160.18C53.0209 160.361 53.0694 160.538 53.1607 160.695C53.2519 160.851 53.3828 160.98 53.54 161.07L96.22 185.67C96.3766 185.76 96.5542 185.808 96.735 185.808C96.9158 185.808 97.0934 185.76 97.25 185.67L139.92 160.99C140.079 160.9 140.21 160.768 140.302 160.61C140.393 160.452 140.441 160.273 140.44 160.09L140.37 110.88C140.37 110.7 140.323 110.523 140.234 110.367C140.144 110.211 140.015 110.081 139.86 109.99L97.19 85.3499C97.0322 85.2577 96.8528 85.209 96.67 85.209C96.4872 85.209 96.3078 85.2577 96.15 85.3499L53.51 110.02C53.3546 110.111 53.2258 110.241 53.1363 110.397C53.0468 110.553 52.9998 110.73 53 110.91L53.02 160.18Z" fill="#C62828"/>
<path d="M487.87 86.6C497.17 83.72 506.54 87.79 509.06 97.81C511.49 107.45 510.17 121.48 498.99 124.77C493.743 126.317 488.95 125.833 484.61 123.32C476.95 118.88 475.94 107.91 477.34 99.94C478.58 92.84 482.09 88.3933 487.87 86.6ZM491.38 118.48C500.75 120.48 501.06 109.42 500.72 102.99C500.44 97.71 498.92 91.89 492.27 92.73C488.56 93.19 486.96 96.88 486.53 100.17C485.92 104.82 485.3 117.19 491.38 118.48Z" fill="white"/>
<path d="M660.01 113.06C657.98 103.54 659.25 90.3 669.75 86.77C674.464 85.1834 679 85.3867 683.36 87.38C693.01 91.81 693.85 105.74 691.17 114.67C689.16 121.34 683.93 125.24 676.91 125.58C668.42 125.99 661.83 121.6 660.01 113.06ZM682.45 98.67C681.73 94.59 678.81 92.06 674.47 92.76C667.13 93.94 668.23 107.48 669.17 112.36C670.137 117.387 672.93 119.437 677.55 118.51C684.37 117.15 683.38 103.87 682.45 98.67Z" fill="#C62828"/>
<path d="M713.49 117.77C716.79 117.66 719.62 116.28 722.3 114.42C722.893 114.013 723.443 114.063 723.95 114.57C725.216 115.843 726.196 117.253 726.89 118.8C727.15 119.373 727.036 119.857 726.55 120.25C720.46 125.17 710.17 128.04 703.28 123.06C695.21 117.23 695.24 103.02 698.47 95.23C700.843 89.5033 705.02 86.3666 711 85.82C718.64 85.12 727.23 88.95 727.14 97.7C727.08 102.35 722.74 102.83 719.2 101.96C718.853 101.873 718.68 101.653 718.68 101.3C718.66 98.07 718.03 94.15 714.42 93.18C708.51 91.59 706.46 96.74 706.08 101.46C705.65 106.6 705.31 118.02 713.49 117.77Z" fill="#C62828"/>
<path d="M315.24 108.88C317.206 110.287 318.516 112.22 319.17 114.68C320.01 117.833 321.236 120.457 322.85 122.55C323.103 122.877 323.063 123.16 322.73 123.4C319.45 125.7 314.41 126.67 312.61 121.99C311.65 119.497 310.763 116.983 309.95 114.45C308.93 111.29 306.61 110.47 303.44 110.79C303.033 110.83 302.83 111.053 302.83 111.46V124.35C302.83 124.53 302.758 124.703 302.631 124.831C302.503 124.958 302.33 125.03 302.15 125.03L294.76 125.06C294.233 125.06 293.97 124.793 293.97 124.26L293.98 87.05C293.98 86.6966 294.156 86.5166 294.51 86.51C298.643 86.3966 302.803 86.31 306.99 86.25C313.58 86.15 319.84 88.42 321.08 95.63C322.073 101.377 320.14 105.58 315.28 108.24C314.926 108.433 314.913 108.647 315.24 108.88ZM302.78 93.45L302.86 103.55C302.86 103.603 302.87 103.656 302.891 103.705C302.912 103.755 302.942 103.799 302.98 103.836C303.019 103.874 303.064 103.903 303.114 103.922C303.163 103.942 303.216 103.951 303.27 103.95L307.31 103.91C308.625 103.899 309.882 103.395 310.804 102.51C311.727 101.625 312.24 100.431 312.23 99.19L312.21 97.65C312.205 97.0352 312.072 96.4274 311.818 95.8614C311.564 95.2955 311.194 94.7824 310.73 94.3515C310.265 93.9206 309.715 93.5803 309.112 93.3501C308.508 93.12 307.861 93.0044 307.21 93.01L303.17 93.05C303.065 93.0526 302.966 93.0959 302.893 93.1706C302.82 93.2453 302.78 93.3456 302.78 93.45Z" fill="white"/>
<path d="M358.77 124.7L348.66 124.85C348.512 124.852 348.366 124.811 348.242 124.731C348.117 124.651 348.019 124.536 347.96 124.4C344.3 116.153 340.68 107.897 337.1 99.63C336.993 99.3766 336.96 99.1166 337 98.85C337.026 98.6433 336.993 98.45 336.9 98.27C336.346 97.19 336.103 97.2566 336.17 98.47C336.663 107.61 336.82 116.173 336.64 124.16C336.626 124.76 336.32 125.057 335.72 125.05L329.1 125.02C328.566 125.02 328.303 124.757 328.31 124.23L328.51 86.71C331.763 86.13 335.02 86.1033 338.28 86.63C338.66 86.69 338.923 86.8966 339.07 87.25L350.54 113.83C350.906 114.677 351.056 114.64 350.99 113.72C350.47 106.193 350.336 98.2433 350.59 89.87C350.613 89.105 350.895 88.3705 351.388 87.7858C351.882 87.2012 352.559 86.8009 353.31 86.65C354.283 86.45 355.256 86.2533 356.23 86.06C357.95 85.7133 358.81 86.4166 358.81 88.17L358.77 124.7Z" fill="white"/>
<path d="M374.11 117.18L372.12 124.03C371.933 124.67 371.507 125.02 370.84 125.08C368.593 125.273 366.47 125.187 364.47 124.82C363.71 124.68 363.45 124.243 363.69 123.51L375.61 87.1101C375.723 86.7501 375.967 86.5501 376.34 86.5101C379.473 86.1701 382.53 86.1867 385.51 86.56C385.692 86.5838 385.863 86.6586 386.003 86.7755C386.143 86.8925 386.246 87.0467 386.3 87.2201L397.56 122.26C398.207 124.287 397.47 125.273 395.35 125.22C394.397 125.193 393.443 125.17 392.49 125.15C390.217 125.09 388.757 123.97 388.11 121.79L386.82 117.43C386.687 116.99 386.39 116.77 385.93 116.77L374.66 116.76C374.536 116.76 374.415 116.801 374.316 116.877C374.217 116.953 374.145 117.059 374.11 117.18ZM376.58 109.24C376.493 109.573 376.623 109.737 376.97 109.73L383.95 109.72C384.403 109.72 384.57 109.5 384.45 109.06L380.87 95.7801C380.637 94.8934 380.4 94.8934 380.16 95.7801L376.58 109.24Z" fill="white"/>
<path d="M410.61 98.08C411.21 106.887 411.403 115.573 411.19 124.14C411.177 124.727 410.873 125.02 410.28 125.02L403.72 125.03C403.505 125.03 403.299 124.945 403.147 124.793C402.995 124.641 402.91 124.435 402.91 124.22V87.22C402.91 86.8667 403.083 86.6667 403.43 86.62C406.463 86.1867 409.61 86.16 412.87 86.54C413.197 86.58 413.423 86.75 413.55 87.05L425.15 113.96C425.57 114.933 425.737 114.89 425.65 113.83C424.997 106.283 424.827 98.3 425.14 89.88C425.169 89.1205 425.45 88.3926 425.94 87.8126C426.429 87.2326 427.098 86.8338 427.84 86.68C427.907 86.6667 428.933 86.4533 430.92 86.04C432.533 85.7 433.34 86.3567 433.34 88.01L433.35 124.06C433.35 124.52 433.12 124.777 432.66 124.83C429.54 125.183 426.393 125.197 423.22 124.87C423.044 124.852 422.877 124.788 422.736 124.686C422.596 124.584 422.486 124.447 422.42 124.29L410.98 97.99C410.68 97.2967 410.557 97.3267 410.61 98.08Z" fill="white"/>
<path d="M441.79 87.4C441.793 87.0994 441.914 86.812 442.128 86.6004C442.341 86.3887 442.63 86.27 442.93 86.27L457.6 86.29C459.586 86.2925 461.551 86.7016 463.384 87.4941C465.217 88.2866 466.881 89.4468 468.283 90.9086C469.684 92.3703 470.795 94.1049 471.551 96.0132C472.307 97.9214 472.695 99.966 472.69 102.03L472.67 109.41C472.662 113.575 471.064 117.566 468.227 120.506C465.39 123.446 461.546 125.095 457.54 125.09L442.87 125.06C442.568 125.06 442.278 124.94 442.064 124.726C441.851 124.512 441.73 124.222 441.73 123.92L441.79 87.4ZM450.75 93.64L450.67 117.76C450.67 117.885 450.72 118.004 450.808 118.092C450.896 118.181 451.016 118.23 451.14 118.23L455.85 118.25C456.846 118.253 457.833 118.017 458.754 117.556C459.676 117.095 460.514 116.417 461.22 115.562C461.927 114.707 462.488 113.691 462.873 112.572C463.257 111.452 463.457 110.252 463.46 109.04L463.48 102.44C463.488 99.9927 462.696 97.6435 461.28 95.9089C459.865 94.1743 457.94 93.1963 455.93 93.19L451.22 93.17C451.159 93.17 451.098 93.1822 451.041 93.2058C450.984 93.2294 450.932 93.264 450.888 93.3077C450.844 93.3513 450.81 93.4031 450.786 93.4602C450.763 93.5172 450.75 93.5783 450.75 93.64Z" fill="white"/>
<path d="M549.93 108.99C554.64 111.7 553.78 118.45 557.45 122.24C557.797 122.6 557.78 122.943 557.4 123.27C556.42 124.103 555.26 124.697 553.92 125.05C550.427 125.957 548.09 124.637 546.91 121.09C546.077 118.577 545.27 116.273 544.49 114.18C543.41 111.273 541.234 110.183 537.96 110.91C537.66 110.977 537.51 111.163 537.51 111.47V124.26C537.51 124.773 537.254 125.03 536.74 125.03H529.47C528.93 125.03 528.66 124.76 528.66 124.22V87.05C528.66 86.9138 528.714 86.783 528.809 86.6858C528.904 86.5885 529.034 86.5326 529.17 86.53C532.99 86.4233 536.97 86.3266 541.11 86.24C548.32 86.09 554.84 88.38 555.86 96.27C556.56 101.697 554.584 105.727 549.93 108.36C549.564 108.567 549.564 108.777 549.93 108.99ZM537.52 93.33L537.5 103.59C537.5 103.68 537.536 103.767 537.6 103.83C537.664 103.894 537.75 103.93 537.84 103.93L541.86 103.94C542.525 103.941 543.183 103.82 543.797 103.584C544.412 103.347 544.97 103 545.441 102.562C545.912 102.124 546.286 101.603 546.541 101.029C546.797 100.456 546.929 99.8412 546.93 99.22V97.74C546.933 96.4856 546.402 95.2815 545.455 94.3926C544.508 93.5037 543.222 93.0028 541.88 93L537.86 92.99C537.77 92.99 537.684 93.0258 537.62 93.0896C537.556 93.1533 537.52 93.2398 537.52 93.33Z" fill="#C62828"/>
<path d="M581.7 116.77L570.54 116.76C570.2 116.76 569.983 116.923 569.89 117.25L567.93 123.97C567.73 124.643 567.277 125.01 566.57 125.07C564.35 125.263 562.313 125.197 560.46 124.87C559.553 124.71 559.243 124.193 559.53 123.32L571.36 87.2201C571.5 86.7867 571.8 86.5434 572.26 86.4901C575.253 86.1767 578.27 86.1901 581.31 86.5301C581.69 86.5767 581.94 86.7834 582.06 87.1501C586 99.4501 589.787 111.183 593.42 122.35C594.073 124.35 593.277 125.313 591.03 125.24C590.877 125.233 589.95 125.203 588.25 125.15C585.97 125.077 584.51 123.943 583.87 121.75L582.63 117.47C582.497 117.003 582.187 116.77 581.7 116.77ZM579.94 109.73C579.99 109.73 580.04 109.719 580.085 109.697C580.13 109.675 580.169 109.643 580.2 109.603C580.231 109.564 580.252 109.518 580.263 109.469C580.273 109.419 580.272 109.369 580.26 109.32L576.65 95.4501C576.632 95.3788 576.591 95.3156 576.533 95.2704C576.475 95.2252 576.404 95.2007 576.33 95.2007C576.257 95.2007 576.185 95.2252 576.127 95.2704C576.069 95.3156 576.028 95.3788 576.01 95.4501L572.35 109.33C572.338 109.379 572.337 109.429 572.347 109.479C572.358 109.528 572.379 109.574 572.41 109.613C572.441 109.653 572.48 109.685 572.525 109.707C572.57 109.729 572.62 109.74 572.67 109.74L579.94 109.73Z" fill="#C62828"/>
<path d="M646.69 104.31C649.03 105.037 650.624 106.577 651.47 108.93C652.584 112.01 653.674 115.18 654.74 118.44C655.194 119.827 655.914 121.127 656.9 122.34C657.001 122.465 657.051 122.623 657.04 122.784C657.029 122.945 656.958 123.097 656.84 123.21C653.75 126.13 648.1 126.44 646.45 121.74C645.47 118.947 644.504 116.017 643.55 112.95C642.517 109.637 640.237 108.253 636.71 108.8C636.548 108.826 636.4 108.907 636.292 109.03C636.184 109.152 636.123 109.308 636.12 109.47L636.09 124.22C636.09 124.767 635.817 125.04 635.27 125.04H627.99C627.457 125.04 627.19 124.773 627.19 124.24V87.22C627.19 86.7533 627.424 86.4967 627.89 86.45C630.497 86.1833 633.02 86.1967 635.46 86.49C635.887 86.5367 636.1 86.78 636.1 87.22L636.11 100.7C636.11 101.147 636.334 101.37 636.78 101.37C638.03 101.37 639.15 101.19 639.78 99.98C641.84 96.06 643.904 92.1733 645.97 88.32C646.617 87.1067 647.63 86.4567 649.01 86.37C650.977 86.2567 652.894 86.3 654.76 86.5C655.66 86.5933 655.9 87.04 655.48 87.84C653.18 92.2533 650.76 96.7867 648.22 101.44C647.79 102.25 647.15 102.89 646.5 103.52C646.12 103.887 646.184 104.15 646.69 104.31Z" fill="#C62828"/>
<path d="M776.87 103.22C778.49 97.8067 780.416 92.6 782.65 87.6C783.103 86.5867 783.886 86.1167 785 86.19L789.99 86.54C791.13 86.62 791.476 87.1867 791.03 88.24L781.07 111.78C780.7 112.645 780.51 113.577 780.51 114.52L780.53 124.38C780.53 124.82 780.31 125.04 779.87 125.04L772.33 125.05C772.124 125.05 771.928 124.969 771.782 124.825C771.636 124.681 771.552 124.485 771.55 124.28C771.543 121.293 771.566 118.283 771.62 115.25C771.64 113.69 771.226 111.92 770.38 109.94C767.4 103 764.446 96.18 761.52 89.48C760.72 87.6467 761.32 86.6534 763.32 86.5C764.253 86.4334 765.183 86.3634 766.11 86.29C768.263 86.13 769.766 87.04 770.62 89.02C772.913 94.3667 774.676 99.1 775.91 103.22C776.23 104.3 776.55 104.3 776.87 103.22Z" fill="#C62828"/>
<path d="M241.23 94.24C241.05 94.24 240.96 94.3333 240.96 94.52L241 101.75C241.006 101.99 241.13 102.11 241.37 102.11L251.81 102.06C252.816 102.053 253.32 102.553 253.32 103.56V107.94C253.32 108.94 252.82 109.44 251.82 109.44L241.53 109.43C241.17 109.43 240.99 109.61 240.99 109.97V124.02C240.99 124.7 240.65 125.04 239.97 125.04H233.02C232.346 125.033 232.01 124.693 232.01 124.02V87.05C232.01 86.9306 232.057 86.8162 232.142 86.7318C232.226 86.6474 232.34 86.6 232.46 86.6L254.75 86.59C256.37 86.59 257.046 87.39 256.78 88.99C256.613 89.9633 256.476 90.76 256.37 91.38C256.05 93.2733 254.93 94.22 253.01 94.22L241.23 94.24Z" fill="white"/>
<path d="M271 109.25C270.931 109.25 270.865 109.276 270.816 109.323C270.768 109.37 270.74 109.434 270.74 109.5L270.69 117.23C270.69 117.267 270.698 117.303 270.712 117.337C270.727 117.371 270.748 117.402 270.775 117.428C270.802 117.454 270.834 117.475 270.869 117.489C270.904 117.503 270.942 117.51 270.98 117.51L285.59 117.48C287.777 117.473 288.467 118.487 287.66 120.52C287.493 120.947 287.35 121.313 287.23 121.62C286.323 123.9 284.643 125.03 282.19 125.01C276.757 124.957 271.863 124.953 267.51 125C263.757 125.033 261.88 123.143 261.88 119.33C261.867 108.63 261.867 97.8833 261.88 87.09C261.88 86.9574 261.933 86.8302 262.027 86.7364C262.12 86.6427 262.248 86.59 262.38 86.59H285.44C286.34 86.59 286.767 87.04 286.72 87.94L286.48 92.73C286.433 93.65 285.95 94.11 285.03 94.11L271.04 94.08C270.945 94.08 270.853 94.1179 270.786 94.1854C270.718 94.2529 270.68 94.3445 270.68 94.44L270.75 101.75C270.75 101.91 270.833 101.99 271 101.99H282.53C282.983 101.99 283.247 102.217 283.32 102.67C283.6 104.563 283.597 106.51 283.31 108.51C283.237 109.003 282.95 109.25 282.45 109.25H271Z" fill="white"/>
<path d="M603.62 94L595.46 94.04C595.08 94.04 594.86 93.85 594.8 93.47C594.526 91.7433 594.516 89.6733 594.77 87.26C594.816 86.82 595.063 86.6 595.51 86.6H621.19C622.65 86.6 623.29 87.32 623.11 88.76C623.03 89.4133 622.92 90.29 622.78 91.39C622.566 93.1233 621.59 93.9933 619.85 94L613.76 94.02C613.4 94.02 613.22 94.2 613.22 94.56L613.24 124.14C613.24 124.727 612.946 125.02 612.36 125.02L605.02 125.03C604.506 125.03 604.25 124.777 604.25 124.27V94.62C604.25 94.2 604.04 93.9933 603.62 94Z" fill="#C62828"/>
<path d="M747.84 93.49C742.86 93.9033 737.733 94.0233 732.46 93.85C731.94 93.83 731.653 93.5633 731.6 93.05C731.387 91.17 731.467 89.2766 731.84 87.37C731.94 86.8566 732.253 86.6 732.78 86.6L756.3 86.63C756.653 86.63 756.883 86.7966 756.99 87.13C757.69 89.43 758.73 92.77 757.23 94.9C751.863 102.54 746.307 110.08 740.56 117.52C740.547 117.538 740.539 117.559 740.538 117.582C740.536 117.604 740.541 117.626 740.551 117.646C740.562 117.666 740.577 117.682 740.597 117.693C740.616 117.705 740.638 117.71 740.66 117.71C744.853 117.477 749.123 117.317 753.47 117.23C754.89 117.2 756.42 116.77 757.75 116.25C758.217 116.063 758.45 116.223 758.45 116.73C758.45 117.13 758.497 117.537 758.59 117.95C759.64 122.89 756.87 124.84 752.5 124.8C745.58 124.727 738.84 124.723 732.28 124.79C731.833 124.79 731.553 124.577 731.44 124.15C731.08 122.717 730.8 121.25 730.6 119.75C730.447 118.577 730.95 117.17 732.11 115.53C737.437 108.017 742.767 100.827 748.1 93.96C748.373 93.6066 748.287 93.45 747.84 93.49Z" fill="#C62828"/>
<path d="M129 117.25L129.01 153.77C129.011 153.886 128.98 154 128.922 154.1C128.864 154.2 128.781 154.283 128.68 154.34L97.0198 172.62C96.9198 172.679 96.8058 172.71 96.6898 172.71C96.5737 172.71 96.4598 172.679 96.3598 172.62L64.7898 154.38C64.6923 154.323 64.6115 154.241 64.5554 154.142C64.4993 154.044 64.4698 153.933 64.4698 153.82L64.4298 117.26C64.428 117.145 64.4567 117.032 64.5129 116.932C64.5691 116.832 64.6508 116.748 64.7498 116.69L96.3398 98.43C96.4386 98.3729 96.5507 98.3429 96.6648 98.3429C96.7789 98.3429 96.8909 98.3729 96.9898 98.43L128.67 116.68C128.771 116.737 128.854 116.82 128.912 116.92C128.97 117.02 129.001 117.134 129 117.25ZM82.4598 143.26C82.4607 143.427 82.5056 143.59 82.5899 143.734C82.6741 143.878 82.7948 143.997 82.9398 144.08L96.2198 151.75C96.3663 151.834 96.5324 151.877 96.7011 151.875C96.8698 151.873 97.0351 151.827 97.1798 151.74L110.52 144.01C110.663 143.926 110.782 143.806 110.864 143.663C110.946 143.519 110.99 143.356 110.99 143.19V127.84C110.99 127.674 110.946 127.511 110.864 127.367C110.782 127.224 110.663 127.104 110.52 127.02L97.1698 119.3C97.0242 119.215 96.8585 119.17 96.6898 119.17C96.521 119.17 96.3554 119.215 96.2098 119.3L82.9298 126.99C82.7867 127.074 82.668 127.194 82.5855 127.337C82.5031 127.481 82.4597 127.644 82.4598 127.81V143.26Z" fill="white"/>
<path d="M243.05 166.37C236.43 165.28 234.26 171 235.03 176.53C236.06 183.98 245.06 185.25 247.25 177.72C247.35 177.367 247.583 177.157 247.95 177.09C248.483 177.003 249.01 177.017 249.53 177.13C249.672 177.166 249.795 177.256 249.872 177.381C249.949 177.506 249.973 177.657 249.94 177.8C248.8 182.48 246.01 184.903 241.57 185.07C228.02 185.56 228.94 161.25 243.55 163.96C246.85 164.573 248.903 166.483 249.71 169.69C249.734 169.784 249.737 169.882 249.717 169.977C249.698 170.072 249.658 170.161 249.599 170.238C249.54 170.315 249.465 170.378 249.378 170.422C249.292 170.465 249.197 170.489 249.1 170.49H248C247.573 170.49 247.283 170.29 247.13 169.89C246.383 167.87 245.023 166.697 243.05 166.37Z" fill="#C62828"/>
<path d="M393.66 182.76C390.486 178.72 389.913 174.03 391.94 168.69C394.6 164.237 398.456 162.753 403.51 164.24C406.123 165.013 407.8 166.927 408.54 169.98C408.6 170.22 408.51 170.36 408.27 170.4C407.743 170.5 407.216 170.513 406.69 170.44C406.216 170.367 405.896 170.107 405.73 169.66C405.003 167.74 403.683 166.637 401.77 166.35C395.17 165.36 393.07 170.94 393.77 176.4C394.74 183.9 403.66 185.34 406.04 177.74C406.091 177.578 406.186 177.435 406.315 177.325C406.445 177.215 406.602 177.144 406.77 177.12C407.296 177.04 407.82 177.057 408.34 177.17C408.66 177.243 408.78 177.437 408.7 177.75C407.426 183.137 403.946 185.557 398.26 185.01C396.826 184.87 395.293 184.12 393.66 182.76Z" fill="white"/>
<path d="M425.652 185.24C423.003 185.231 420.466 184.083 418.6 182.049C416.733 180.015 415.69 177.262 415.7 174.395C415.71 171.528 416.772 168.782 418.653 166.762C420.533 164.741 423.078 163.611 425.728 163.62C428.377 163.629 430.914 164.777 432.781 166.811C434.647 168.845 435.69 171.598 435.68 174.465C435.67 177.332 434.608 180.078 432.727 182.098C430.847 184.119 428.302 185.249 425.652 185.24ZM425.676 182.79C426.615 182.792 427.545 182.577 428.413 182.159C429.281 181.741 430.07 181.127 430.736 180.353C431.401 179.579 431.929 178.659 432.29 177.647C432.651 176.634 432.838 175.549 432.84 174.452C432.842 173.356 432.659 172.27 432.301 171.256C431.944 170.242 431.419 169.321 430.756 168.544C430.094 167.768 429.307 167.151 428.44 166.73C427.573 166.309 426.644 166.092 425.705 166.09C424.766 166.088 423.836 166.303 422.967 166.721C422.099 167.139 421.31 167.753 420.645 168.527C419.979 169.301 419.451 170.221 419.09 171.233C418.729 172.245 418.542 173.331 418.54 174.427C418.538 175.524 418.721 176.61 419.079 177.624C419.436 178.638 419.961 179.559 420.624 180.335C421.287 181.112 422.074 181.728 422.941 182.15C423.807 182.571 424.737 182.788 425.676 182.79Z" fill="white"/>
<path d="M472.07 181.66C475.77 184.04 480.24 182.34 481.38 177.96C481.447 177.702 481.595 177.471 481.802 177.303C482.008 177.134 482.263 177.035 482.53 177.02C483.003 176.993 483.45 177.06 483.87 177.22C484.103 177.313 484.193 177.487 484.14 177.74C483.313 181.6 481.193 183.957 477.78 184.81C462.45 188.63 462.09 160 478.51 164.16C481.39 164.893 483.207 166.767 483.96 169.78C484.08 170.253 483.897 170.483 483.41 170.47L482.08 170.43C481.889 170.425 481.705 170.36 481.553 170.245C481.401 170.131 481.288 169.972 481.23 169.79C480.483 167.577 478.887 166.39 476.44 166.23C470.31 165.84 468.57 171.34 469.22 176.49C469.527 178.917 470.477 180.64 472.07 181.66Z" fill="white"/>
<path d="M269.03 178.7H261.63C261.519 178.7 261.409 178.734 261.318 178.799C261.227 178.863 261.158 178.955 261.12 179.06L259.3 184.2C259.266 184.299 259.203 184.386 259.119 184.45C259.036 184.514 258.935 184.552 258.83 184.56L257.1 184.69C257.01 184.696 256.92 184.679 256.838 184.641C256.756 184.603 256.685 184.545 256.631 184.472C256.578 184.4 256.543 184.315 256.53 184.225C256.518 184.136 256.528 184.045 256.56 183.96L263.86 164.59C263.899 164.486 263.969 164.397 264.06 164.335C264.151 164.272 264.26 164.239 264.37 164.24L266.69 164.28C266.8 164.282 266.907 164.317 266.997 164.382C267.086 164.446 267.154 164.536 267.19 164.64L274.18 183.89C274.209 183.972 274.218 184.06 274.206 184.147C274.193 184.233 274.16 184.315 274.109 184.386C274.058 184.457 273.99 184.514 273.912 184.553C273.834 184.592 273.748 184.612 273.66 184.61L271.81 184.57C271.702 184.566 271.597 184.53 271.51 184.466C271.422 184.401 271.356 184.312 271.32 184.21L269.54 179.06C269.503 178.955 269.434 178.863 269.343 178.799C269.251 178.734 269.142 178.7 269.03 178.7ZM262.26 175.79C262.243 175.838 262.237 175.89 262.244 175.941C262.25 175.992 262.269 176.041 262.298 176.083C262.328 176.125 262.367 176.16 262.413 176.184C262.458 176.207 262.509 176.22 262.56 176.22L268.03 176.27C268.081 176.269 268.13 176.257 268.175 176.234C268.219 176.21 268.258 176.177 268.287 176.136C268.316 176.095 268.335 176.048 268.343 175.998C268.35 175.949 268.346 175.898 268.33 175.85L265.67 168.11C265.65 168.045 265.609 167.989 265.554 167.949C265.499 167.908 265.433 167.887 265.365 167.887C265.297 167.887 265.231 167.908 265.176 167.949C265.122 167.989 265.081 168.045 265.06 168.11L262.26 175.79Z" fill="#C62828"/>
<path d="M295.92 174.9C297.113 175.64 297.687 176.787 297.64 178.34C297.58 180.52 297.883 182.63 298.55 184.67C298.577 184.763 298.543 184.803 298.45 184.79L295.56 184.45C295.393 184.43 295.303 184.337 295.29 184.17L294.89 178.28C294.85 177.652 294.573 177.062 294.115 176.628C293.657 176.194 293.052 175.949 292.42 175.94L285.32 175.87C284.94 175.87 284.75 176.057 284.75 176.43V183.96C284.75 184.427 284.513 184.667 284.04 184.68L282.99 184.71C282.33 184.73 282 184.407 282 183.74V164.8C282 164.44 282.18 164.26 282.54 164.26C285.853 164.233 289.1 164.253 292.28 164.32C298.12 164.46 300.14 170.74 295.87 174.23C295.577 174.477 295.593 174.7 295.92 174.9ZM284.74 166.95L284.76 173.19C284.76 173.275 284.794 173.356 284.854 173.416C284.914 173.476 284.995 173.51 285.08 173.51L292.04 173.5C292.458 173.499 292.871 173.415 293.256 173.255C293.641 173.094 293.991 172.86 294.286 172.564C294.58 172.269 294.813 171.919 294.972 171.534C295.13 171.149 295.211 170.736 295.21 170.32V169.78C295.209 169.364 295.125 168.952 294.964 168.568C294.803 168.184 294.568 167.835 294.272 167.541C293.975 167.248 293.624 167.016 293.238 166.857C292.851 166.699 292.438 166.619 292.02 166.62L285.06 166.63C284.975 166.63 284.894 166.664 284.834 166.724C284.774 166.784 284.74 166.865 284.74 166.95Z" fill="#C62828"/>
<path d="M310.32 172.96H320.46C320.533 172.96 320.605 172.975 320.671 173.003C320.738 173.031 320.799 173.073 320.849 173.125C320.9 173.177 320.939 173.239 320.965 173.307C320.991 173.375 321.003 173.447 321 173.52L320.96 174.84C320.955 174.98 320.896 175.112 320.795 175.209C320.694 175.306 320.56 175.36 320.42 175.36L310.36 175.37C310.217 175.37 310.079 175.427 309.978 175.528C309.877 175.629 309.82 175.767 309.82 175.91L309.79 181.65C309.79 181.793 309.847 181.931 309.948 182.032C310.049 182.133 310.187 182.19 310.33 182.19L321.53 182.18C321.67 182.18 321.804 182.234 321.905 182.331C322.006 182.428 322.065 182.56 322.07 182.7L322.12 183.98C322.123 184.053 322.111 184.125 322.085 184.193C322.059 184.261 322.02 184.323 321.969 184.375C321.919 184.427 321.858 184.469 321.791 184.497C321.725 184.525 321.653 184.54 321.58 184.54L307.6 184.59C307.457 184.59 307.319 184.533 307.218 184.432C307.117 184.331 307.06 184.193 307.06 184.05L307.04 164.79C307.04 164.647 307.097 164.509 307.198 164.408C307.299 164.307 307.437 164.25 307.58 164.25L321.42 164.27C321.492 164.27 321.563 164.284 321.629 164.312C321.695 164.34 321.755 164.38 321.805 164.432C321.856 164.483 321.895 164.544 321.922 164.61C321.948 164.677 321.961 164.748 321.96 164.82L321.92 166.21C321.917 166.351 321.859 166.486 321.758 166.585C321.657 166.685 321.522 166.74 321.38 166.74L310.36 166.73C310.217 166.73 310.079 166.787 309.978 166.888C309.877 166.989 309.82 167.127 309.82 167.27L309.78 172.42C309.78 172.491 309.794 172.561 309.821 172.627C309.848 172.692 309.888 172.752 309.938 172.802C309.988 172.852 310.048 172.892 310.113 172.919C310.179 172.946 310.249 172.96 310.32 172.96Z" fill="#C62828"/>
<path d="M333.91 172.96H344.04C344.166 172.96 344.286 173.009 344.376 173.097C344.466 173.185 344.517 173.304 344.52 173.43L344.54 174.88C344.541 174.944 344.53 175.007 344.506 175.067C344.483 175.126 344.448 175.18 344.403 175.226C344.358 175.272 344.305 175.308 344.246 175.333C344.187 175.357 344.124 175.37 344.06 175.37L333.94 175.38C333.877 175.38 333.814 175.392 333.756 175.417C333.698 175.441 333.645 175.476 333.6 175.521C333.556 175.565 333.521 175.618 333.496 175.676C333.472 175.735 333.46 175.797 333.46 175.86L333.43 181.71C333.43 181.837 333.48 181.959 333.57 182.049C333.661 182.139 333.783 182.19 333.91 182.19L345.22 182.2C345.345 182.2 345.466 182.249 345.556 182.337C345.646 182.425 345.697 182.544 345.7 182.67L345.72 184.04C345.721 184.104 345.71 184.167 345.686 184.227C345.663 184.286 345.628 184.34 345.583 184.386C345.538 184.432 345.485 184.468 345.426 184.493C345.367 184.517 345.304 184.53 345.24 184.53L331.15 184.58C331.087 184.58 331.024 184.568 330.966 184.543C330.908 184.519 330.855 184.484 330.81 184.439C330.766 184.395 330.731 184.342 330.706 184.284C330.682 184.225 330.67 184.163 330.67 184.1L330.7 164.73C330.7 164.603 330.75 164.481 330.84 164.391C330.931 164.301 331.053 164.25 331.18 164.25L345.01 164.27C345.137 164.27 345.259 164.321 345.349 164.411C345.439 164.501 345.49 164.623 345.49 164.75L345.48 166.26C345.48 166.387 345.429 166.509 345.339 166.599C345.249 166.689 345.127 166.74 345 166.74L333.93 166.73C333.867 166.73 333.804 166.742 333.746 166.767C333.688 166.791 333.635 166.826 333.59 166.871C333.546 166.915 333.511 166.968 333.486 167.026C333.462 167.085 333.45 167.147 333.45 167.21L333.43 172.48C333.43 172.543 333.442 172.605 333.466 172.664C333.491 172.722 333.526 172.775 333.57 172.819C333.615 172.864 333.668 172.899 333.726 172.923C333.784 172.948 333.847 172.96 333.91 172.96Z" fill="#C62828"/>
<path d="M357.04 176.54L357.03 183.98C357.03 184.487 356.777 184.733 356.27 184.72L355.22 184.68C354.594 184.66 354.28 184.34 354.28 183.72L354.31 164.82C354.31 164.467 354.487 164.287 354.84 164.28C358.08 164.213 361.454 164.247 364.96 164.38C370.58 164.6 372.21 170.84 368.24 174.2C367.967 174.433 367.977 174.657 368.27 174.87C369.424 175.703 369.984 176.793 369.95 178.14C369.897 180.507 370.174 182.583 370.78 184.37C370.874 184.65 370.774 184.777 370.48 184.75L368.26 184.58C368.108 184.569 367.965 184.505 367.855 184.399C367.745 184.293 367.676 184.152 367.66 184C367.46 182.347 367.33 180.687 367.27 179.02C367.197 177.06 366.2 176.04 364.28 175.96C362.08 175.86 359.887 175.833 357.7 175.88C357.26 175.887 357.04 176.107 357.04 176.54ZM357.01 166.96L357.03 173.2C357.03 173.285 357.064 173.366 357.124 173.426C357.184 173.486 357.265 173.52 357.35 173.52L364.34 173.51C365.186 173.507 365.997 173.182 366.593 172.607C367.189 172.031 367.523 171.252 367.52 170.44V169.68C367.519 169.278 367.435 168.881 367.274 168.51C367.112 168.139 366.876 167.802 366.579 167.519C366.282 167.236 365.929 167.012 365.542 166.859C365.154 166.707 364.739 166.629 364.32 166.63L357.33 166.64C357.245 166.64 357.164 166.674 357.104 166.734C357.044 166.794 357.01 166.875 357.01 166.96Z" fill="#C62828"/>
<path d="M454.51 178.68L447.12 178.71C447.008 178.71 446.899 178.744 446.808 178.809C446.716 178.873 446.647 178.965 446.61 179.07L444.76 184.22C444.724 184.321 444.66 184.409 444.574 184.473C444.489 184.537 444.386 184.574 444.28 184.58L442.58 184.67C442.49 184.676 442.399 184.659 442.318 184.621C442.236 184.583 442.164 184.525 442.111 184.452C442.057 184.38 442.022 184.295 442.01 184.205C441.998 184.116 442.008 184.024 442.04 183.94L449.34 164.58C449.382 164.475 449.455 164.386 449.55 164.325C449.645 164.264 449.757 164.234 449.87 164.24L452.23 164.33C452.335 164.335 452.437 164.371 452.522 164.433C452.608 164.495 452.673 164.581 452.71 164.68L459.7 184.03C459.731 184.116 459.739 184.208 459.725 184.298C459.711 184.387 459.674 184.472 459.618 184.544C459.562 184.616 459.489 184.672 459.405 184.708C459.322 184.744 459.23 184.759 459.14 184.75L457.27 184.57C457.167 184.56 457.069 184.521 456.987 184.458C456.905 184.394 456.844 184.308 456.81 184.21L455.03 179.05C454.994 178.941 454.924 178.846 454.83 178.78C454.737 178.713 454.625 178.678 454.51 178.68ZM447.76 175.82C447.744 175.865 447.739 175.913 447.745 175.96C447.752 176.008 447.77 176.053 447.797 176.092C447.824 176.131 447.861 176.163 447.903 176.185C447.945 176.208 447.992 176.22 448.04 176.22L453.49 176.29C453.538 176.291 453.587 176.28 453.63 176.259C453.674 176.237 453.711 176.206 453.74 176.166C453.768 176.127 453.787 176.081 453.794 176.033C453.801 175.985 453.796 175.936 453.78 175.89L451.15 168.06C451.131 168 451.094 167.947 451.043 167.909C450.993 167.871 450.932 167.85 450.868 167.849C450.805 167.847 450.743 167.866 450.692 167.902C450.64 167.939 450.601 167.99 450.58 168.05L447.76 175.82Z" fill="white"/>
<path d="M505.03 175.05L495.61 175.13C495.458 175.133 495.313 175.195 495.206 175.303C495.1 175.412 495.04 175.558 495.04 175.71V184.04C495.04 184.19 494.982 184.335 494.877 184.443C494.773 184.551 494.63 184.615 494.48 184.62L492.91 184.69C492.832 184.693 492.755 184.68 492.682 184.652C492.609 184.624 492.543 184.581 492.487 184.527C492.431 184.473 492.386 184.408 492.356 184.337C492.326 184.265 492.31 184.188 492.31 184.11L492.29 164.83C492.29 164.678 492.35 164.532 492.456 164.423C492.563 164.315 492.708 164.253 492.86 164.25L494.47 164.24C494.547 164.239 494.624 164.253 494.695 164.281C494.767 164.31 494.832 164.352 494.887 164.406C494.942 164.46 494.985 164.525 495.015 164.596C495.045 164.667 495.06 164.743 495.06 164.82L494.99 172.14C494.989 172.218 495.003 172.295 495.032 172.367C495.061 172.44 495.105 172.505 495.16 172.56C495.215 172.615 495.28 172.659 495.353 172.688C495.425 172.717 495.502 172.731 495.58 172.73L505.13 172.72C505.284 172.72 505.431 172.659 505.54 172.55C505.649 172.441 505.71 172.294 505.71 172.14L505.75 164.8C505.75 164.722 505.766 164.645 505.796 164.573C505.826 164.502 505.871 164.437 505.927 164.383C505.983 164.328 506.049 164.286 506.122 164.258C506.195 164.23 506.272 164.217 506.35 164.22L507.86 164.27C508.01 164.275 508.153 164.339 508.257 164.447C508.362 164.555 508.42 164.7 508.42 164.85L508.39 184.1C508.39 184.252 508.33 184.398 508.224 184.507C508.117 184.615 507.972 184.677 507.82 184.68L506.38 184.71C506.304 184.711 506.228 184.698 506.157 184.67C506.086 184.642 506.022 184.6 505.967 184.547C505.912 184.494 505.868 184.431 505.838 184.361C505.808 184.291 505.791 184.216 505.79 184.14L505.61 175.61C505.605 175.46 505.541 175.317 505.433 175.213C505.325 175.108 505.18 175.05 505.03 175.05Z" fill="white"/>
</svg>
